<svg xmlns="http://www.w3.org/2000/svg" width="29" height="22.449" viewBox="0 0 29 22.449">
  <path id="Path_1" data-name="Path 1" d="M24.566,1.88A23.619,23.619,0,0,0,18.583,0a17.558,17.558,0,0,0-.766,1.591,21.968,21.968,0,0,0-6.631,0A17.008,17.008,0,0,0,10.41,0,23.541,23.541,0,0,0,4.423,1.885a25.092,25.092,0,0,0-4.3,16.8,23.921,23.921,0,0,0,7.338,3.76,18.253,18.253,0,0,0,1.572-2.588,15.448,15.448,0,0,1-2.475-1.2c.208-.154.411-.315.607-.48a16.91,16.91,0,0,0,14.671,0c.2.165.4.326.607.48a15.407,15.407,0,0,1-2.479,1.207,18.162,18.162,0,0,0,1.572,2.588,23.872,23.872,0,0,0,7.342-3.762A25.067,25.067,0,0,0,24.566,1.88ZM9.683,15.3a2.815,2.815,0,0,1-2.607-2.966A2.8,2.8,0,0,1,9.683,9.37a2.782,2.782,0,0,1,2.607,2.968A2.8,2.8,0,0,1,9.683,15.3Zm9.635,0a2.815,2.815,0,0,1-2.607-2.966A2.8,2.8,0,0,1,19.317,9.37a2.782,2.782,0,0,1,2.607,2.968A2.8,2.8,0,0,1,19.317,15.3Z" transform="translate(0)" fill="#fe871f"/>
</svg>
